<?xml version="1.0" encoding="UTF-8" standalone="no"?>
<!DOCTYPE svg PUBLIC "-//W3C//DTD SVG 1.1//EN" "http://www.w3.org/Graphics/SVG/1.1/DTD/svg11.dtd">
<svg width="100%" height="100%" viewBox="0 0 540 145" version="1.1" xmlns="http://www.w3.org/2000/svg" xmlns:xlink="http://www.w3.org/1999/xlink" xml:space="preserve" xmlns:serif="http://www.serif.com/" style="fill-rule:evenodd;clip-rule:evenodd;stroke-linejoin:round;stroke-miterlimit:2;">
    <g transform="matrix(1,0,0,1,-20,-310)">
        <g transform="matrix(0.0846763,0,0,0.0846763,-0.951086,290.011)">
            <g transform="matrix(9.16182,0,0,9.16287,5436.85,1084.46)">
                <path d="M0,-0.352C0,21.298 17.426,38.196 38.02,38.196C58.615,38.196 75.336,21.298 75.336,-0.352C75.336,-22.002 58.615,-38.548 38.02,-38.548C17.25,-38.548 0,-22.002 0,-0.352M103.852,-0.352C103.852,35.204 75.336,62.487 37.668,62.487C0,62.487 -28.515,35.38 -28.515,-0.352C-28.515,-36.26 0,-62.839 37.668,-62.839C75.336,-62.839 103.852,-36.083 103.852,-0.352" style="fill:rgb(52,55,59);fill-rule:nonzero;"/>
            </g>
            <g transform="matrix(9.16182,0,0,9.16287,4525.78,1445.73)">
                <path d="M0,-77.096L0,-46.821L55.622,-46.821L55.622,-23.586L0,-23.586L0,23.059L-27.811,23.059L-27.811,-100.155L60.726,-100.155L60.55,-77.096L0,-77.096Z" style="fill:rgb(52,55,59);fill-rule:nonzero;"/>
            </g>
            <g transform="matrix(9.16182,0,0,9.16287,4089.39,1479.61)">
                <path d="M0,-84.49L-16.193,-64.775C-24.643,-74.457 -36.788,-80.793 -48.229,-80.793C-69.352,-80.793 -85.721,-64.424 -85.721,-42.95C-85.721,-21.475 -69.352,-4.929 -48.229,-4.929C-37.14,-4.929 -24.994,-10.561 -16.193,-19.363L0.176,-1.585C-12.849,11.793 -31.684,20.418 -49.637,20.418C-86.425,20.418 -114.236,-6.865 -114.236,-42.597C-114.236,-78.153 -85.897,-104.908 -48.581,-104.908C-30.803,-104.908 -12.145,-96.987 0,-84.49" style="fill:rgb(52,55,59);fill-rule:nonzero;"/>
            </g>
            <g transform="matrix(11.8097,0,0,11.8097,11.2298,-1712.28)">
                <path d="M192.506,184.994C221.485,184.994 245.012,208.521 245.012,237.5C245.012,266.479 221.485,290.006 192.506,290.006C163.527,290.006 140,266.479 140,237.5C140,208.521 163.527,184.994 192.506,184.994ZM213.717,256.055C216.06,253.712 216.06,249.913 213.717,247.57C209.009,242.862 201.456,235.31 196.748,230.602C194.405,228.259 190.606,228.259 188.263,230.602C183.555,235.31 176.003,242.862 171.295,247.57C168.952,249.913 168.952,253.712 171.295,256.055C176.003,260.763 183.555,268.315 188.263,273.023C190.606,275.366 194.405,275.366 196.748,273.023C201.456,268.315 209.009,260.763 213.717,256.055ZM202.404,214.118C203.154,213.368 203.575,212.35 203.575,211.289C203.575,210.228 203.154,209.211 202.404,208.461C200.299,206.356 197.439,203.496 195.334,201.391C194.584,200.641 193.566,200.219 192.506,200.219C191.445,200.219 190.427,200.641 189.677,201.391C187.572,203.496 184.712,206.356 182.607,208.461C181.857,209.211 181.436,210.228 181.436,211.289C181.436,212.35 181.857,213.368 182.607,214.118C184.712,216.222 187.572,219.083 189.677,221.188C190.427,221.938 191.445,222.359 192.506,222.359C193.566,222.359 194.584,221.938 195.334,221.188C197.439,219.083 200.299,216.222 202.404,214.118Z" style="fill:rgb(52,55,59);"/>
            </g>
            <g transform="matrix(9.16182,0,0,9.16287,1273.65,528.024)">
                <path d="M0,123.214L-59.671,44.181L-59.671,123.214L-86.25,123.214L-86.25,0L-60.903,0L-1.057,79.21L-1.057,0L25.346,0L25.346,123.214L0,123.214Z" style="fill:rgb(52,55,59);fill-rule:nonzero;"/>
            </g>
        </g>
        <g transform="matrix(0.0635072,0,0,0.0635072,111.422,9.9966)">
            <g id="Logo">
            </g>
        </g>
    </g>
</svg>
